<svg xmlns="http://www.w3.org/2000/svg" viewBox="0 0 800 800" width="800" height="800">
  <!-- Corazones azules elegantes y discretos -->
  <g opacity="0.08">
    <!-- Corazón grande central -->
    <path d="M400,200 C400,160 450,140 470,180 C490,220 480,280 400,340 C320,280 310,220 330,180 C350,140 400,160 400,200 Z" fill="#A8C5E5"/>
  </g>
  
  <g opacity="0.06">
    <!-- Corazones medianos distribuidos -->
    <path d="M150,100 C150,80 180,70 195,95 C210,120 205,155 150,185 C95,155 90,120 105,95 C120,70 150,80 150,100 Z" fill="#7BA3CC"/>
    <path d="M650,100 C650,80 680,70 695,95 C710,120 705,155 650,185 C595,155 590,120 605,95 C620,70 650,80 650,100 Z" fill="#7BA3CC"/>
    <path d="M100,400 C100,380 130,370 145,395 C160,420 155,455 100,485 C45,455 40,420 55,395 C70,370 100,380 100,400 Z" fill="#7BA3CC"/>
    <path d="M700,400 C700,380 730,370 745,395 C760,420 755,455 700,485 C645,455 640,420 655,395 C670,370 700,380 700,400 Z" fill="#7BA3CC"/>
    <path d="M150,700 C150,680 180,670 195,695 C210,720 205,755 150,785 C95,755 90,720 105,695 C120,670 150,680 150,700 Z" fill="#7BA3CC"/>
    <path d="M650,700 C650,680 680,670 695,695 C710,720 705,755 650,785 C595,755 590,720 605,695 C620,670 650,680 650,700 Z" fill="#7BA3CC"/>
  </g>
  
  <g opacity="0.04">
    <!-- Corazones pequeños para textura -->
    <path d="M80,60 C80,50 95,45 105,55 C115,65 110,80 80,95 C50,80 45,65 55,55 C65,45 80,50 80,60 Z" fill="#5E8AB8"/>
    <path d="M720,60 C720,50 735,45 745,55 C755,65 750,80 720,95 C690,80 685,65 695,55 C705,45 720,50 720,60 Z" fill="#5E8AB8"/>
    <path d="M60,250 C60,240 75,235 85,245 C95,255 90,270 60,285 C30,270 25,255 35,245 C45,235 60,240 60,250 Z" fill="#5E8AB8"/>
    <path d="M740,250 C740,240 755,235 765,245 C775,255 770,270 740,285 C710,270 705,255 715,245 C725,235 740,240 740,250 Z" fill="#5E8AB8"/>
    <path d="M70,550 C70,540 85,535 95,545 C105,555 100,570 70,585 C40,570 35,555 45,545 C55,535 70,540 70,550 Z" fill="#5E8AB8"/>
    <path d="M730,550 C730,540 745,535 755,545 C765,555 760,570 730,585 C700,570 695,555 705,545 C715,535 730,540 730,550 Z" fill="#5E8AB8"/>
    <path d="M80,740 C80,730 95,725 105,735 C115,745 110,760 80,775 C50,760 45,745 55,735 C65,725 80,730 80,740 Z" fill="#5E8AB8"/>
    <path d="M720,740 C720,730 735,725 745,735 C755,745 750,760 720,775 C690,760 685,745 695,735 C705,725 720,730 720,740 Z" fill="#5E8AB8"/>
    <path d="M400,50 C400,40 415,35 425,45 C435,55 430,70 400,85 C370,70 365,55 375,45 C385,35 400,40 400,50 Z" fill="#5E8AB8"/>
    <path d="M400,750 C400,740 415,735 425,745 C435,755 430,770 400,785 C370,770 365,755 375,745 C385,735 400,740 400,750 Z" fill="#5E8AB8"/>
  </g>
  
  <!-- Detalles decorativos adicionales -->
  <g opacity="0.03">
    <circle cx="200" cy="300" r="2" fill="#A8C5E5"/>
    <circle cx="600" cy="300" r="2" fill="#A8C5E5"/>
    <circle cx="200" cy="500" r="2" fill="#A8C5E5"/>
    <circle cx="600" cy="500" r="2" fill="#A8C5E5"/>
  </g>
</svg>